<?xml version="1.0" standalone="no"?>
<!DOCTYPE svg PUBLIC "-//W3C//DTD SVG 20010904//EN"
 "http://www.w3.org/TR/2001/REC-SVG-20010904/DTD/svg10.dtd">
<svg version="1.0" xmlns="http://www.w3.org/2000/svg"
 width="612.000000pt" height="612.000000pt" viewBox="0 0 612.000000 612.000000"
 preserveAspectRatio="xMidYMid meet">

<g transform="translate(0.000000,612.000000) scale(0.100000,-0.100000)"
fill="#000000" stroke="none">
<path d="M2981 4851 c-8 -5 -11 -41 -9 -122 3 -106 4 -114 23 -114 19 0 20 8
23 116 2 92 0 118 -11 122 -8 3 -19 2 -26 -2z"/>
<path d="M3173 4677 c-85 -84 -95 -97 -83 -111 7 -9 17 -15 22 -14 12 4 188
180 188 188 0 4 -7 13 -15 20 -13 11 -30 -2 -112 -83z"/>
<path d="M2420 4370 l0 -120 -195 0 c-154 0 -204 -3 -233 -15 -47 -20 -78 -50
-105 -100 -22 -40 -22 -43 -22 -710 l0 -670 25 -45 c14 -24 45 -58 68 -75 l44
-30 1046 -2 1047 -3 45 23 c60 31 106 100 115 170 3 28 5 333 3 677 l-3 625
-25 45 c-14 24 -45 58 -68 75 l-44 30 -549 3 -549 2 0 120 0 120 -300 0 -300
0 0 -120z m490 -55 l0 -65 -190 0 -190 0 0 65 0 65 190 0 190 0 0 -65z m1175
-179 c67 -28 65 -5 65 -713 0 -614 -1 -639 -20 -670 -13 -21 -31 -35 -57 -42
-53 -15 -1973 -15 -2026 0 -26 7 -44 21 -57 42 -19 31 -20 56 -20 672 0 492 3
646 13 665 7 14 28 33 47 42 33 17 103 18 1028 18 835 0 998 -2 1027 -14z"/>
<path d="M2650 3939 c-281 -40 -482 -306 -442 -583 29 -198 173 -368 360 -426
76 -24 211 -27 288 -6 224 59 384 269 384 501 0 315 -280 559 -590 514z m159
-110 c120 -27 224 -109 283 -220 32 -62 33 -68 33 -179 0 -110 -1 -118 -33
-182 -124 -252 -448 -313 -652 -122 -117 110 -160 275 -110 425 26 76 41 101
99 162 95 101 247 147 380 116z"/>
<path d="M2627 3565 c-48 -33 -71 -78 -71 -141 0 -56 24 -102 73 -139 39 -30
144 -28 189 3 134 96 68 302 -97 302 -44 0 -65 -6 -94 -25z m131 -91 c31 -22
30 -78 -2 -99 -64 -42 -130 41 -76 95 24 24 48 25 78 4z"/>
<path d="M3620 3900 l0 -50 155 0 155 0 0 50 0 50 -155 0 -155 0 0 -50z"/>
<path d="M3143 4474 c-3 -8 -1 -20 5 -26 12 -12 223 -11 235 1 4 4 5 15 1 24
-9 24 -231 25 -241 1z"/>
<path d="M1920 2115 l0 -185 35 0 34 0 3 131 3 131 89 -131 c72 -105 94 -131
113 -131 l23 0 0 186 0 185 -32 -3 -33 -3 -5 -104 -5 -104 -73 106 c-72 105
-74 107 -113 107 l-39 0 0 -185z"/>
<path d="M2760 2114 l0 -185 33 3 32 3 3 183 2 182 -35 0 -35 0 0 -186z"/>
<path d="M2349 2185 c-54 -29 -73 -126 -37 -195 28 -55 75 -75 139 -61 52 12
77 35 90 85 20 74 -5 151 -57 174 -34 16 -103 14 -135 -3z m105 -48 c23 -17
31 -93 14 -127 -11 -19 -21 -25 -48 -25 -44 0 -63 31 -56 94 4 45 24 71 56 71
9 0 24 -6 34 -13z"/>
<path d="M2927 2193 c-16 -4 -17 -17 -15 -131 l3 -127 32 -3 32 -3 3 98 c3 97
3 98 31 107 51 18 62 1 65 -108 l3 -96 29 0 30 0 0 95 c0 83 2 96 19 105 30
16 59 12 71 -9 5 -11 10 -58 10 -105 l0 -86 30 0 30 0 0 109 c0 94 -3 112 -21
135 -24 31 -81 36 -117 10 -20 -14 -24 -14 -44 0 -12 9 -38 16 -58 16 -20 0
-46 -7 -58 -16 -20 -14 -22 -14 -22 0 0 16 -17 18 -53 9z"/>
<path d="M3408 2188 c-20 -7 -28 -17 -28 -33 0 -22 2 -23 65 -17 l65 5 0 -30
c0 -28 -4 -32 -44 -42 -84 -21 -125 -86 -83 -128 19 -19 71 -19 106 -1 19 10
25 10 28 1 7 -20 93 -17 93 2 0 8 -7 15 -15 15 -12 0 -15 17 -15 94 0 79 -3
97 -21 120 -18 22 -28 26 -72 25 -29 0 -64 -5 -79 -11z m102 -172 c0 -17 -9
-27 -29 -36 -49 -20 -67 4 -31 40 28 28 60 26 60 -4z"/>
<path d="M3704 2181 c-35 -22 -54 -65 -54 -125 0 -96 70 -153 146 -121 l35 14
-3 -31 c-4 -48 -41 -65 -106 -52 -49 10 -50 10 -55 -15 -3 -14 0 -29 6 -33 19
-12 98 -19 130 -12 83 18 97 52 97 237 l0 128 -35 15 c-49 20 -124 18 -161 -5z
m110 -37 c12 -5 16 -21 16 -70 0 -54 -3 -65 -22 -78 -50 -35 -88 -6 -88 66 0
69 39 103 94 82z"/>
<path d="M4031 2187 c-59 -30 -86 -121 -57 -190 20 -49 82 -79 141 -70 57 8
75 20 75 49 0 21 -4 25 -17 19 -10 -4 -37 -9 -59 -12 -33 -4 -46 -1 -63 16
-40 40 -29 51 54 51 64 0 76 3 85 20 16 30 2 87 -27 110 -29 23 -95 27 -132 7z
m87 -49 c25 -25 13 -38 -33 -38 -48 0 -55 9 -29 34 18 19 45 21 62 4z"/>
<path d="M2898 1659 c-44 -25 -3 -93 42 -69 26 14 26 56 1 70 -23 12 -22 12
-43 -1z"/>
<path d="M3052 1660 c-22 -9 -22 -10 -20 -197 l3 -188 33 -3 32 -3 0 200 c0
213 1 210 -48 191z"/>
<path d="M3493 1663 c-23 -4 -23 -5 -23 -205 l0 -200 23 7 c12 4 30 7 40 6 9
0 36 -1 60 -2 56 -3 92 21 113 76 36 96 -12 195 -95 195 -22 0 -43 -4 -46 -10
-15 -25 -24 -4 -27 62 -3 73 -6 78 -45 71z m147 -209 c15 -38 12 -87 -6 -112
-12 -18 -24 -22 -52 -20 l-37 3 -3 63 c-4 75 7 92 54 92 28 0 36 -5 44 -26z"/>
<path d="M3810 1661 l-25 -7 -3 -192 -2 -192 35 0 35 0 0 200 c0 110 -3 200
-7 199 -5 -1 -19 -4 -33 -8z"/>
<path d="M2083 1623 c-6 -15 -121 -296 -140 -341 -4 -10 4 -13 32 -10 35 3 40
7 54 46 l15 42 67 0 66 0 17 -45 c16 -41 21 -45 52 -45 19 0 34 1 34 3 0 1
-33 83 -73 182 -61 149 -77 181 -95 183 -14 2 -25 -3 -29 -15z m45 -140 c5
-16 13 -35 17 -44 5 -14 -1 -18 -34 -21 -23 -2 -41 -1 -41 2 0 12 36 90 42 90
3 0 11 -12 16 -27z"/>
<path d="M2633 1529 c-37 -11 -46 -21 -37 -42 4 -12 20 -15 67 -14 60 2 62 1
65 -24 3 -24 -2 -28 -44 -38 -51 -13 -104 -58 -104 -89 0 -46 86 -74 126 -41
11 9 18 9 26 1 18 -18 98 -15 98 3 0 8 -6 15 -14 15 -11 0 -15 22 -18 101 -3
92 -5 103 -27 120 -25 21 -83 24 -138 8z m97 -169 c0 -24 -44 -55 -66 -46 -22
8 -13 38 16 53 35 18 50 16 50 -7z"/>
<path d="M2908 1533 c-16 -4 -18 -19 -18 -134 l0 -129 30 0 30 0 0 135 c0 140
0 139 -42 128z"/>
<path d="M3213 1529 c-26 -7 -33 -15 -33 -34 0 -24 1 -24 65 -18 l65 6 0 -30
c0 -27 -4 -32 -45 -43 -66 -18 -95 -44 -95 -85 0 -54 48 -76 107 -49 27 13 38
15 41 6 6 -19 92 -16 92 3 0 8 -7 15 -15 15 -12 0 -15 18 -15 98 0 85 -3 101
-20 120 -23 24 -86 29 -147 11z m97 -173 c0 -17 -9 -27 -31 -36 -51 -22 -66
24 -16 48 35 17 47 14 47 -12z"/>
<path d="M3978 1524 c-38 -20 -58 -63 -58 -124 0 -89 46 -136 132 -134 45 2
98 22 98 38 -1 28 -15 35 -56 24 -56 -15 -90 -5 -102 32 l-11 29 82 3 82 3 3
43 c3 36 -1 47 -27 72 -24 24 -38 30 -73 30 -24 -1 -55 -7 -70 -16z m90 -46
c25 -25 13 -38 -33 -38 -50 0 -57 11 -23 34 27 19 40 20 56 4z"/>
<path d="M2294 1513 c3 -10 25 -67 49 -128 38 -97 47 -110 69 -113 20 -2 28 3
36 25 5 15 28 74 50 131 l40 102 -34 0 c-19 0 -37 -6 -39 -12 -2 -7 -15 -42
-28 -77 l-24 -65 -28 77 c-27 76 -28 77 -62 77 -28 0 -33 -3 -29 -17z"/>
</g>
</svg>
